<?xml version="1.0" encoding="utf-8"?>
<svg width="2222" height="2500" viewBox="0 0 256 288" xmlns="http://www.w3.org/2000/svg" preserveAspectRatio="xMinYMin meet">
  <path d="M 210.952 145.195 L 201.23 145.195 L 201.23 154.919 L 191.506 154.919 L 191.506 145.195 L 181.785 145.195 L 181.785 135.474 L 191.506 135.474 L 191.506 125.752 L 201.23 125.752 L 201.23 135.474 L 210.952 135.474 L 210.952 145.195 M 175.477 145.195 L 165.756 145.195 L 165.756 154.919 L 156.034 154.919 L 156.034 145.195 L 146.312 145.195 L 146.312 135.474 L 156.034 135.474 L 156.034 125.752 L 165.756 125.752 L 165.756 135.474 L 175.477 135.474 L 175.477 145.195" style="fill: rgb(92, 141, 188);"/>
  <path d="M 133.744 157.787 C 127.756 168.418 116.378 175.602 103.323 175.602 C 90.345 175.602 79.033 168.508 73.015 157.99 C 69.992 152.712 68.403 146.733 68.409 140.648 C 68.409 121.345 84.041 105.696 103.323 105.696 C 116.215 105.696 127.468 112.702 133.516 123.113 L 164.03 105.521 C 151.901 84.559 129.257 70.456 103.323 70.456 C 64.601 70.456 33.212 101.883 33.212 140.648 C 33.212 153.367 36.59 165.293 42.499 175.58 C 54.595 196.652 77.305 210.842 103.323 210.842 C 129.388 210.842 152.132 196.596 164.212 175.461 L 133.744 157.787" fill="#FFF" style="stroke: rgb(0, 0, 0);"/>
</svg>