<?xml version="1.0" encoding="utf-8"?>
<svg xmlns="http://www.w3.org/2000/svg" viewBox="0 0 128 128">
  <path d="M 46.208 88.352 C 43.122 85.923 39.834 83.597 37.58 80.322 C 32.847 74.546 29.201 67.851 26.714 60.822 C 25.204 56.247 24.693 51.347 22.747 46.949 C 20.719 43.755 23.096 40.269 26.589 39.255 C 28.143 38.955 30.885 37.482 27.582 38.541 C 24.621 40.713 24.336 36.563 27.369 36.301 C 29.441 36.023 30.207 34.333 29.499 32.8 C 27.274 31.35 34.897 29.752 31.06 27.585 C 27.065 23.276 36.646 22.444 34.283 27.345 C 33.723 31.108 40.978 26.652 39.295 30.999 C 41.008 33.085 45.713 31.472 45.588 34.404 C 48.082 34.579 48.943 36.672 51.276 36.833 C 53.705 37.927 58.104 38.795 58.927 41.53 C 56.52 43.434 50.94 37.592 50.679 42.872 C 51.408 50.669 51.218 58.698 54.069 66.122 C 55.42 70.614 58.686 74.152 61.64 77.653 C 64.469 81.081 68.291 83.495 72.201 85.53 C 75.62 87.142 79.312 88.214 83.046 88.884 C 84.554 87.726 87.231 83.43 89.587 85.237 C 89.704 87.28 84.905 89.497 89.362 89.278 C 91.979 88.49 93.795 91.299 95.953 88.761 C 97.937 91.116 104.21 87.258 102.794 92.064 C 100.885 93.297 98.098 92.552 96.181 94.252 C 93.023 92.677 90.514 95.66 87.021 95.287 C 83.141 95.981 79.194 96.265 75.255 96.265 C 68.802 95.755 62.209 95.543 56.076 93.297 C 52.618 92.289 49.241 90.322 46.208 88.352 Z M 51.655 90.716 C 55.032 92.174 58.337 93.713 62.034 94.179 C 67.906 94.995 73.973 96.25 79.865 95.106 C 77.196 93.902 74.44 95.572 71.786 94.244 C 68.597 94.931 65.177 94.069 61.939 93.647 C 58.257 92.007 54.282 90.876 50.831 88.745 C 46.522 87.17 53.063 90.765 54.222 91.058 C 56.914 92.59 51.262 90.27 50.46 89.635 C 48.207 88.367 47.914 88.636 50.235 89.92 C 50.7 90.189 51.167 90.482 51.655 90.716 Z M 45.23 86.172 C 48.506 87.381 45.216 83.866 43.721 84.071 C 43.057 82.918 41.183 82.189 42.502 81.57 C 40.125 82.394 40.009 78.433 38.894 78.995 C 36.377 78.2 37.915 75.385 34.918 73.656 C 34.648 71.834 31.943 70.257 31.081 67.507 C 30.702 66.1 28.027 62.067 29.667 65.823 C 31.067 69.44 33.525 72.54 35.575 75.632 C 37.165 78.579 39.045 81.657 41.934 83.495 C 42.911 84.443 43.851 85.879 45.23 86.172 Z M 35.801 75.823 C 35.917 75.327 36.399 76.887 35.801 75.823 Z M 49.146 87.622 C 49.876 87.302 48.104 87.213 49.146 87.622 Z M 50.926 88.272 C 50.744 87.375 50.116 88.775 50.926 88.272 Z M 53.152 89.198 C 54.209 88.191 51.518 88.563 53.152 89.198 Z M 56.959 91.32 C 57.608 90.372 54.901 90.963 56.959 91.32 Z M 49.643 86.222 C 51.285 85.157 47.521 86.207 49.643 86.222 Z M 51.313 87.053 C 51.262 86.492 50.716 87.302 51.313 87.053 Z M 59.648 92.254 C 60.991 93.099 67.475 94.106 63.412 92.603 C 62.734 92.75 55.878 90.663 59.648 92.254 Z M 46.412 81.948 C 46.281 81.386 44.334 81.329 46.412 81.948 Z M 50.291 84.209 C 51.305 83.51 48.199 83.67 50.291 84.209 Z M 53.56 86.214 C 55.003 85.667 51.205 85.667 53.56 86.214 Z M 44.829 80.227 C 46.404 81.43 51.174 80.381 47.238 79.505 C 45.449 78.55 41.409 77.901 44.16 80.081 L 44.829 80.227 Z M 55.77 86.909 C 56.425 85.792 53.019 86.267 55.77 86.909 Z M 52.443 84.26 C 56.286 85.347 49.212 81.824 51.495 83.859 L 52.006 84.093 L 52.443 84.26 Z M 59.109 88.11 C 62.749 88.147 55.821 87.615 59.109 88.11 Z M 43.431 78.119 C 43.291 77.442 42.532 78.178 43.431 78.119 Z M 65.264 91.567 C 65.367 90.343 64.084 92.479 65.264 91.567 Z M 49.643 81.926 C 49.426 81.285 48.506 81.898 49.643 81.926 Z M 43.78 77.696 C 45.865 77.573 40.913 76.779 43.78 77.696 Z M 36.821 73.204 C 36.56 72.198 34.547 71.403 36.821 73.204 Z M 55.076 84.785 C 54.698 84.348 54.894 84.881 55.076 84.785 Z M 66.44 91.758 C 66.402 91.094 65.818 92.013 66.44 91.758 Z M 54.069 83.75 C 54.274 82.889 52.29 83.487 54.069 83.75 Z M 45.609 78.382 C 47.163 78.214 43.116 77.331 45.609 78.382 Z M 59.926 87.28 C 62.347 86.317 57.563 86.813 59.926 87.28 Z M 52.479 82.226 C 55.273 82.583 49.155 80.322 51.868 82.021 L 52.479 82.226 Z M 62.186 88.2 C 64.798 86.638 63.938 91.853 66.614 88.636 C 69.254 86.711 64.332 91.02 67.584 88.979 C 69.939 87.404 73.412 89.723 75.607 90.482 C 77.181 90.402 78.72 91.846 80.34 90.971 C 83.454 90.131 74.242 89.723 76.657 88.235 C 73.806 89.066 71.698 87.244 70.296 85.42 C 67.096 84.683 63.398 83.049 61.8 80.212 C 61.151 79.147 62.741 80.366 61.239 78.623 C 59.314 76.909 58.351 74.961 57.06 72.876 C 55.514 72.052 55.331 69.623 55.179 72.795 C 55.192 70.798 53.313 69.448 52.852 70.009 C 52.844 68.084 54.865 69.046 53.45 67.626 C 53.143 65.627 52.144 63.548 51.845 61.294 C 51.379 60.208 51.78 57.881 50.249 60.339 C 49.694 62.943 50.065 57.145 50.934 59.055 C 52.071 57.108 50.525 57.335 50.46 57.604 C 51.205 55.957 50.926 53.622 50.263 54.512 C 50.656 52.769 50.891 48.093 49.672 48.926 C 50.409 47.103 51.072 40.583 47.871 43.069 C 46.573 43.091 44.334 43.536 43.27 44.068 C 46.595 45.899 42.933 44.731 41.577 44.44 C 41.403 46.139 40.059 45.404 38.382 45.417 C 41.058 45.745 37.076 48.152 35.546 47.218 C 33.549 48.173 37.266 50.551 35.582 51.289 C 35.786 52.398 32.525 50.887 32.78 53.448 C 30.849 52.63 32.519 56.481 33.482 55.182 C 36.771 56.072 35.801 58.107 35.881 60.033 C 35.341 61.156 33.234 57.392 35.413 57.567 C 33.693 54.774 33.51 56.561 32.09 57.852 C 31.76 57.947 35.727 59.698 33.234 60.565 C 35.428 60.908 35.494 62.826 35.939 64.037 C 37.26 65.408 36.99 62.521 38.566 64.168 C 37.565 62.696 33.278 60.025 36.726 60.878 C 36.706 59.398 36.1 58.202 37.165 58.232 C 38.215 56.335 36.062 62.913 38.425 60.501 C 39.083 60.215 39.243 58.603 40.417 60.653 C 42.123 62.33 41.037 63.548 38.624 62.009 C 39.055 63.475 41.847 63.993 41.323 66.283 C 41.876 68.296 42.656 67.553 43.335 67.436 C 43.866 69.39 44.165 67.953 44.195 67.019 C 46.631 67.545 46.062 68.981 46.82 69.988 C 48.497 70.746 44.42 64.853 47.302 68.216 C 50.335 70.951 48.44 72.096 45.719 71.658 C 47.441 71.52 47.994 73.984 50.146 73.897 C 52.108 74.831 53.442 78.418 50.059 76.924 C 48.885 75.865 44.728 74.561 48.127 76.574 C 51.262 78.024 53.748 78.893 56.775 80.716 C 58.934 82.262 59.876 84.027 60.693 84.377 C 58.876 85.245 55.215 83.685 57.935 83.203 C 56.236 82.896 54.332 82.035 55.959 84.152 C 57.337 85.304 60.853 85.187 61.486 85.31 C 60.954 86.484 60.037 86.58 61.508 86.667 C 59.867 87.557 62.034 87.695 62.186 88.2 Z M 58.833 78.718 C 57.833 77.675 57.578 75.721 58.658 77.42 C 59.203 77.638 60.429 80.613 58.833 78.718 Z M 69.765 85.661 C 70.384 85.618 69.779 86.134 69.765 85.661 Z M 57.257 76.157 C 57.213 74.575 57.615 77.376 57.257 76.157 Z M 56.17 74.691 C 54.908 72.27 57.753 75.385 56.17 74.691 Z M 42.999 65.605 C 43.735 65.408 43.364 66.867 42.999 65.605 Z M 53.479 71.286 C 53.931 69.586 54.012 72.715 53.479 71.286 Z M 46.077 66.137 C 45.559 65.197 47.171 67.019 46.077 66.137 Z M 52.429 68.171 C 51.24 65.509 53.275 66.713 52.692 68.611 L 52.429 68.171 Z M 41.475 60.872 C 40.942 59.997 40.067 57.429 40.344 56.649 C 40.599 57.925 43.057 62.141 41.547 58.393 C 39.884 55.256 43.539 59.413 43.919 60.193 C 44.093 60.973 42.89 59.982 43.706 61.805 C 42.219 59.727 42.831 62.957 41.475 60.872 Z M 38.09 58.538 C 38.229 56.503 38.864 59.931 38.09 58.538 Z M 39.608 59.063 C 40.337 57.524 40.841 61.199 39.608 59.063 Z M 35.946 56.226 C 34.684 54.971 33.773 53.818 36.005 55.446 C 36.867 55.483 34.094 52.819 36.209 54.599 C 38.44 55.007 37.31 58.254 35.946 56.226 Z M 37.871 56.175 C 38.6 55.452 38.259 56.89 37.871 56.175 Z M 39.055 56.554 C 37.945 54.476 40.403 57.429 39.055 56.554 Z M 36.706 54.307 C 33.044 51.048 41.307 56.015 37.303 54.913 L 36.706 54.307 Z M 47.2 60.405 C 45.609 59.457 46.777 53.709 47.318 57.64 C 48.856 57.145 47.228 59.668 48.381 59.646 C 48.207 61.237 47.688 61.812 47.2 60.405 Z M 51.087 62.701 C 51.24 60.966 51.415 63.884 51.087 62.701 Z M 50.409 62.032 C 50.584 61.294 50.43 62.906 50.409 62.032 Z M 37.42 53.236 C 35.063 49.99 44.26 56.526 38.929 54.06 C 38.368 53.907 37.696 53.856 37.42 53.236 Z M 44.903 57.195 C 44.676 54.461 45.398 57.648 44.903 57.195 Z M 50.576 60.842 C 51.014 59.283 50.613 61.872 50.576 60.842 Z M 37.785 51.996 C 39.184 51.697 43.581 54.453 39.544 52.783 C 39.089 52.28 38.135 52.506 37.785 51.996 Z M 49.796 57.985 C 49.941 55.182 50.636 56.313 49.803 58.385 L 49.796 57.985 Z M 38.82 51.02 C 39.389 50.18 37.303 47.241 39.119 49.962 C 39.907 50.581 41.387 51.004 40.074 51.267 C 42.146 53.089 39.578 51.762 38.82 51.02 Z M 49.205 57.108 C 49.6 53.922 49.548 58.974 49.205 57.108 Z M 37.631 48.079 C 38.069 47.89 37.865 48.656 37.631 48.079 Z M 40.337 49.691 C 41.037 48.225 41.627 51.317 40.337 49.691 Z M 47.973 53.937 C 47.973 53.375 48.118 54.753 47.973 53.937 Z M 47.535 52.959 C 46.478 50.34 48.52 54.344 47.535 52.959 Z M 46.887 51.245 C 46.703 50.165 47.492 52.601 46.887 51.245 Z M 47.943 49.523 C 47.213 48.24 48.863 43.871 49.045 46.584 C 48.279 48.692 48.826 49.873 49.358 47.045 C 50.35 44.811 49.146 51.434 47.943 49.523 Z M 49.03 43.026 C 49.352 42.638 49.104 43.5 49.03 43.026 Z M 47.213 78.848 C 46.783 78.47 47.265 79.089 47.213 78.848 Z M 50.955 80.746 C 53.042 81.285 53.027 80.425 51.145 80.169 C 50.131 79.228 46.937 78.228 49.796 80.052 C 49.994 80.526 50.59 80.512 50.955 80.746 Z M 43.56 75.829 C 44.705 76.691 47.887 78.251 45.194 76.157 C 46.099 75.108 43.458 74.546 44.334 73.839 C 42.102 72.475 42.576 72.598 44.136 72.643 C 41.46 71.447 44.524 71.534 44.377 70.921 C 43.341 70.718 39.25 69.098 41.657 71.053 C 39.206 69.806 41.073 71.52 40.329 71.337 C 37.82 70.651 42.561 73.247 39.936 72.598 C 41.372 73.736 43.801 75.515 40.542 73.802 C 40.125 74.421 42.882 75.363 43.56 75.829 Z M 47.478 78.084 C 52.239 79.615 45.143 76.202 47.478 78.084 Z M 67.532 90.227 C 67.591 89.278 66.876 91.036 67.532 90.227 Z M 69.59 91.094 C 70.691 90.029 69.633 92.793 71.413 90.831 C 71.434 89.432 71.362 88.6 69.37 90.307 C 68.824 90.612 68.575 91.904 69.59 91.094 Z M 36.88 70.55 C 36.537 69.222 34.509 69.23 36.88 70.55 Z M 39.075 71.994 C 38.259 70.638 36.157 70.768 39.075 71.994 Z M 51.598 79.543 C 52.824 80.628 57.213 80.337 53.079 79.672 C 52.473 78.768 49.198 78.987 51.598 79.543 Z M 68.809 90.168 C 70.683 88.592 66.986 90.876 68.809 90.168 Z M 72.717 92.858 C 72.732 92.356 71.908 93.079 72.717 92.858 Z M 72.726 92.151 C 74.811 89.941 70.705 92.282 72.726 92.151 Z M 31.461 66.02 C 29.688 63.491 30.36 62.351 28.647 60.281 C 28.318 58.698 25.706 55.11 27.298 58.909 C 28.748 61.134 29.178 64.576 31.461 66.02 Z M 72.069 91.452 C 75.905 88.971 70.502 90.372 72.069 91.452 Z M 74.994 92.597 C 76.918 90.949 73.783 92.254 74.994 92.597 Z M 36.223 67.749 C 36.777 66.932 34.808 67.646 36.223 67.749 Z M 74.389 91.809 C 76.249 90.612 73.958 90.796 74.054 91.917 L 74.389 91.809 Z M 49.169 75.917 C 49.104 75.108 48.184 75.983 49.169 75.917 Z M 50.729 76.814 C 50.226 75.808 49.964 76.967 50.729 76.814 Z M 77.372 92.618 C 79.756 90.898 75.928 92.289 76.875 92.946 L 77.372 92.618 Z M 76.452 92.182 C 78.399 90.554 74.41 92.904 76.452 92.182 Z M 81.113 95.279 C 82.418 94.412 79.53 95.004 81.113 95.279 Z M 37.42 67.157 C 39.163 67.553 44.391 71.453 41.307 67.427 C 39.724 66.961 40.673 63.096 39.06 63.781 C 40.139 65.59 39.951 66.356 37.676 65.218 C 34.823 63.826 36.071 65.903 36.632 66.48 C 35.873 66.663 37.646 67.144 37.42 67.157 Z M 29.471 60.878 C 29.783 59.588 26.589 53.769 27.96 57.962 C 28.457 58.844 28.406 60.508 29.471 60.878 Z M 44.064 69.879 C 43.166 69.127 44.02 69.769 44.064 69.879 Z M 46.273 70.396 C 46.273 69.025 43.831 69.835 46.273 70.396 Z M 65.453 82.48 C 65.089 81.547 64.01 82.467 65.453 82.48 Z M 66.372 83.159 C 66.242 82.634 65.848 83.262 66.372 83.159 Z M 73.981 87.943 C 74.71 87.404 73.068 87.878 73.981 87.943 Z M 33.438 61.892 C 35.531 61.082 31.199 61.317 33.438 61.892 Z M 63.77 81.001 C 63.74 79.644 62.435 81.335 63.77 81.001 Z M 32.614 59.967 C 33.955 59.514 31.366 59.668 32.614 59.967 Z M 36.507 61.856 C 36.486 61.411 36.1 62.024 36.507 61.856 Z M 84.073 91.02 C 85.802 90.67 89.74 91.904 90.374 90.562 C 88.274 90.51 83.119 89.081 82.879 90.898 L 83.337 90.971 L 84.073 91.02 Z M 37.748 62.17 C 37.785 60.798 36.682 62.119 37.748 62.17 Z M 27.501 55.059 C 27.034 52.448 25.729 54.666 27.501 55.059 Z M 29.945 55.671 C 29.973 54.833 27.705 54.921 29.945 55.671 Z M 31.336 56.356 C 30.936 56.037 31.024 56.774 31.336 56.356 Z M 40.133 61.995 C 40.548 61.616 39.148 61.718 40.133 61.995 Z M 30.411 54.811 C 30.171 52.834 27.582 54.519 30.411 54.811 Z M 25.4 51.559 C 25.328 50.646 24.911 51.9 25.4 51.559 Z M 26.145 50.996 C 26.02 49.917 25.503 51.135 26.145 50.996 Z M 30.266 53.455 C 32.009 52.769 27.093 52.039 29.907 53.323 L 30.266 53.455 Z M 85.394 87.505 C 86.51 86.484 83.978 87.192 85.394 87.505 Z M 92.052 90.963 C 92.496 89.643 90.929 91.131 92.052 90.963 Z M 30.681 51.295 C 30.872 50.02 29.302 51.55 30.681 51.295 Z M 24.825 47.373 C 24.511 45.57 24.555 42.398 27.567 43.471 C 23.548 44.272 30.352 48.466 29.492 45.155 C 31.185 45.235 32.795 44.156 31.914 45.797 C 35.248 45.433 37.551 42.543 40.767 42.946 C 43.276 42.609 46.011 42.362 48.71 41.355 C 50.926 41.194 53.063 38.803 51.854 37.387 C 48.826 37.132 45.654 37.511 42.313 38.175 C 38.609 38.95 35.238 40.409 31.498 41.042 C 27.852 41.53 32.227 42.391 31.185 42.581 C 29.281 43.238 33.453 43.689 30.936 44.381 C 29.382 44.082 27.763 43.551 28.427 41.917 C 24.935 42.368 21.863 43.82 24.627 47.373 L 24.825 47.373 Z M 33.24 43.084 C 34.058 40.064 37.624 45.564 34.583 43.486 C 34.218 43.207 33.619 42.989 33.24 43.084 Z M 33.401 41.619 C 34.583 40.743 34.028 42.113 33.401 41.619 Z M 34.903 41.647 C 35.013 40.261 38.339 42.383 35.451 42.143 L 34.903 41.647 Z M 36.953 40.816 C 37.704 39.94 37.171 41.597 36.953 40.816 Z M 37.478 40.465 C 38.725 38.964 44.545 39.51 40.286 40.319 C 39.148 39.459 38.274 40.829 37.478 40.465 Z M 45.078 39.299 C 44.889 35.199 48.856 40.749 45.078 39.299 Z M 47.238 39.284 C 48.023 37.221 50.299 38.452 47.601 38.87 C 47.659 39.087 47.521 39.933 47.238 39.284 Z M 29.836 50.238 C 32.19 48.794 27.333 48.983 29.836 50.238 Z M 31.578 50.72 C 32.402 49.845 29.783 50.361 31.578 50.72 Z M 26.444 47.08 C 27.794 46.044 24.854 46.686 26.444 47.08 Z M 95.983 90.583 C 96.021 89.379 94.955 91.124 95.983 90.583 Z M 88.916 85.763 C 89.121 84.377 88.011 85.879 88.916 85.763 Z M 97.93 91.051 C 99.813 91.058 103.634 90.468 99.535 90.468 C 98.893 90.562 95.793 90.548 97.93 91.051 Z M 33.109 49.873 C 34.633 49.771 35.494 48.197 32.81 48.283 C 28.661 47.853 36.471 49.706 32.279 49.173 C 31.716 49.546 33.073 49.976 33.109 49.873 Z M 34.452 50.551 C 34.292 49.575 33.978 51.07 34.452 50.551 Z M 36.041 46.308 C 36.697 45.49 35.122 46.089 36.041 46.308 Z M 30.972 37.847 C 33.693 36.922 37.405 35.886 38.689 38.301 C 37.383 36.731 38.165 35.178 39.396 37.482 C 41.138 39.809 42.014 36.426 40.877 35.644 C 42.167 37.25 43.64 38.007 41.744 35.747 C 43.809 33.267 37.616 36.075 36.209 36.046 C 35.538 36.345 29.222 37.652 30.972 37.847 Z M 32.57 34.799 C 34.123 33.632 37.93 35.498 35.488 33.639 C 35.248 33.42 30.126 35.047 32.57 34.799 Z M 38.221 35.032 C 40.038 35.076 37.441 32.596 39.6 33.719 C 39.243 32.56 37.085 32.341 36.027 31.881 C 35.428 32.939 37.237 35.047 38.221 35.032 Z M 33.562 29.898 C 34.188 29.052 32.46 30.336 33.562 29.898 Z M 35.866 30.452 C 38.79 30.066 35.122 29.198 35.276 30.422 L 35.866 30.452 Z M 31.556 27.083 C 29.499 24.392 35.428 27.535 33.335 24.72 C 31.578 23.319 29.886 26.295 31.556 27.083 Z M 57.964 41.304 C 58.906 39.634 54.069 39.05 57.329 40.713 C 57.636 40.816 57.563 41.421 57.964 41.304 Z" style="fill: rgb(255, 255, 255);"/>
</svg>