<?xml version="1.0" encoding="utf-8"?>
<svg xmlns="http://www.w3.org/2000/svg" width="1344" height="2500" viewBox="6.527 4.399 292.131 337.822">
  <path d="M168.625 181.799c17.896 20.604-4.701 39.146-4.701 39.146s45.439-23.458 24.571-52.833c-19.491-27.395-34.438-41.005 46.479-87.934.001-.001-127.013 31.721-66.349 101.621" fill="#e76f00"/>
  <path d="M188.495 4.399s38.55 38.562-36.563 97.862c-60.233 47.567-13.735 74.689-.025 105.678-35.158-31.723-60.96-59.647-43.65-85.637 25.406-38.151 95.792-56.648 80.238-117.903" fill="#e76f00"/>
  <path d="M 111.898 290.663 C 105.595 296.13 98.938 299.199 92.964 299.199 C 84.437 299.199 79.83 294.086 79.83 285.885 C 79.83 277.014 84.767 270.528 104.569 270.528 L 111.897 270.528 L 111.898 290.663 M 129.29 310.286 L 129.29 249.544 C 129.29 234.026 120.44 223.788 99.102 223.788 C 86.645 223.788 75.733 226.864 66.864 230.787 L 69.424 241.539 C 76.407 238.976 85.446 236.59 94.318 236.59 C 106.61 236.59 111.898 241.539 111.898 251.771 L 111.898 259.449 L 105.763 259.449 C 75.898 259.449 62.426 271.042 62.426 288.442 C 62.426 303.46 71.304 311.996 88.02 311.996 C 98.765 311.996 106.786 307.559 114.284 301.067 L 115.645 310.288 L 129.29 310.286 L 129.29 310.286 Z M 187.333 310.286 L 165.642 310.286 L 139.536 225.326 L 158.48 225.326 L 174.678 277.525 L 178.279 293.224 C 186.474 270.526 192.271 247.498 195.17 225.326 L 213.597 225.326 C 208.659 253.302 199.775 284.01 187.333 310.286 M 270.547 290.663 C 264.232 296.13 257.564 299.199 251.589 299.199 C 243.077 299.199 238.458 294.086 238.458 285.885 C 238.458 277.014 243.405 270.528 263.206 270.528 L 270.547 270.528 L 270.547 290.663 M 287.937 310.286 L 287.937 249.544 C 287.937 234.026 279.066 223.788 257.751 223.788 C 245.286 223.788 234.37 226.864 225.505 230.787 L 228.062 241.539 C 235.047 238.976 244.103 236.59 252.968 236.59 C 265.251 236.59 270.547 241.539 270.547 251.771 L 270.547 259.449 L 264.401 259.449 C 234.528 259.449 221.061 271.042 221.061 288.442 C 221.061 303.46 229.932 311.996 246.645 311.996 C 257.397 311.996 265.415 307.559 272.925 301.067 L 274.291 310.288 L 287.937 310.286 L 287.937 310.286 Z M 43.356 324.713 C 38.398 331.952 30.39 337.679 21.623 340.919 L 13.036 330.814 C 19.709 327.39 25.432 321.86 28.091 316.71 C 30.391 312.129 31.343 306.225 31.343 292.106 L 31.343 195.111 L 49.821 195.111 L 49.821 290.777 C 49.82 309.652 48.311 317.277 43.356 324.713" style="fill: rgb(255, 255, 255);"/>
</svg>