<?xml version="1.0" encoding="utf-8"?>
<svg height="2500" preserveAspectRatio="xMidYMid" viewBox="-3.576 -8.996 259.406 260.1" width="2443" xmlns="http://www.w3.org/2000/svg">
  <g fill="#00546b">
    <path d="M 188.905 164.03 C 179.872 163.805 172.872 164.71 167.002 167.192 C 165.308 167.869 162.598 167.87 162.372 170.015 C 163.276 170.919 163.389 172.386 164.179 173.628 C 165.535 175.886 167.904 178.934 170.05 180.516 C 172.42 182.322 174.793 184.127 177.275 185.708 C 181.679 188.419 186.647 189.999 190.937 192.708 C 193.422 194.288 195.904 196.322 198.388 198.015 C 199.631 198.917 200.421 200.386 202.001 200.95 L 202.001 200.612 C 201.211 199.595 200.984 198.128 200.194 196.999 C 199.066 195.869 197.937 194.854 196.807 193.725 C 193.534 189.322 189.469 185.482 185.066 182.322 C 181.453 179.838 173.55 176.451 172.082 172.273 C 172.082 172.273 171.969 172.161 171.857 172.048 C 174.34 171.822 177.275 170.919 179.647 170.241 C 183.485 169.225 186.985 169.451 190.937 168.434 C 192.743 167.983 194.549 167.418 196.356 166.854 L 196.356 165.838 C 194.324 163.805 192.856 161.096 190.712 159.177 C 184.954 154.208 178.63 149.354 172.082 145.289 C 168.583 143.032 164.065 141.564 160.34 139.644 C 158.986 138.967 156.727 138.629 155.938 137.499 C 153.904 135.016 152.775 131.742 151.308 128.806 C 148.034 122.596 144.873 115.71 142.05 109.161 C 140.019 104.758 138.777 100.354 136.292 96.29 C 124.663 77.097 112.018 65.468 92.599 54.064 C 88.421 51.694 83.454 50.677 78.148 49.436 C 75.326 49.323 72.502 49.097 69.68 48.984 C 67.874 48.193 66.067 46.049 64.487 45.032 C 58.052 40.968 41.454 32.162 36.713 43.791 C 33.663 51.129 41.23 58.354 43.825 62.081 C 45.746 64.678 48.228 67.613 49.583 70.549 C 50.374 72.467 50.599 74.5 51.39 76.533 C 53.197 81.498 54.889 87.032 57.262 91.662 C 58.503 94.032 59.857 96.516 61.439 98.661 C 62.341 99.903 63.921 100.467 64.261 102.499 C 62.681 104.758 62.567 108.146 61.664 110.968 C 57.6 123.725 59.181 139.531 64.938 148.902 C 66.744 151.724 71.035 157.936 76.793 155.563 C 81.874 153.532 80.745 147.096 82.211 141.452 C 82.552 140.095 82.325 139.193 83.002 138.29 L 83.002 138.516 C 84.584 141.676 86.164 144.726 87.631 147.886 C 91.132 153.418 97.228 159.177 102.308 163.016 C 105.019 165.047 107.163 168.547 110.55 169.789 L 110.55 169.45 L 110.324 169.45 C 109.647 168.434 108.631 167.983 107.728 167.192 C 105.696 165.161 103.438 162.677 101.857 160.418 C 97.116 154.095 92.937 147.096 89.212 139.87 C 87.406 136.37 85.824 132.532 84.357 129.032 C 83.68 127.675 83.68 125.645 82.551 124.967 C 80.857 127.451 78.374 129.596 77.132 132.645 C 74.988 137.499 74.762 143.483 73.971 149.692 C 73.519 149.806 73.744 149.692 73.519 149.919 C 69.906 149.014 68.665 145.289 67.309 142.127 C 63.92 134.113 63.357 121.242 66.293 111.983 C 67.083 109.613 70.471 102.162 69.116 99.903 C 68.438 97.758 66.18 96.516 64.938 94.822 C 63.471 92.677 61.889 89.968 60.874 87.597 C 58.163 81.274 56.809 74.274 53.874 67.952 C 52.518 65.016 50.149 61.969 48.228 59.258 C 46.084 56.211 43.713 54.064 42.019 50.452 C 41.455 49.211 40.664 47.179 41.567 45.823 C 41.793 44.919 42.244 44.582 43.148 44.356 C 44.616 43.113 48.794 44.694 50.261 45.371 C 54.439 47.064 57.938 48.646 61.439 51.016 C 63.019 52.146 64.712 54.291 66.744 54.855 L 69.115 54.855 C 72.728 55.645 76.792 55.081 80.18 56.098 C 86.165 58.015 91.582 60.838 96.438 63.888 C 111.229 73.259 123.42 86.581 131.663 102.499 C 133.018 105.096 133.582 107.467 134.824 110.176 C 137.197 115.71 140.132 121.354 142.502 126.774 C 144.873 132.079 147.13 137.499 150.517 141.903 C 152.211 144.273 158.985 145.515 162.034 146.758 C 164.292 147.773 167.793 148.677 169.824 149.919 C 173.662 152.288 177.501 155 181.114 157.595 C 182.921 158.951 188.565 161.773 188.905 164.03 Z" style="fill: rgb(255, 255, 255);"/>
    <path d="M 73.743 65.919 C 71.825 65.919 70.47 66.146 69.115 66.484 L 69.115 66.71 L 69.341 66.71 C 70.246 68.516 71.825 69.758 72.954 71.338 C 73.857 73.145 74.647 74.952 75.551 76.758 C 75.663 76.645 75.776 76.533 75.776 76.533 C 77.358 75.403 78.147 73.597 78.147 70.887 C 77.47 70.097 77.357 69.307 76.792 68.516 C 76.115 67.386 74.647 66.822 73.743 65.919 Z" style="fill: rgb(255, 255, 255);"/>
  </g>
</svg>