<?xml version="1.0" encoding="utf-8"?>
<svg height="2500" viewBox="175.7 78 490.6 436.9" width="2194" xmlns="http://www.w3.org/2000/svg">
  <g fill="#61dafb" transform="matrix(0.905, 0, 0, 0.905, 33.06403, 22.869667)">
    <path d="M 609.874 298.735 C 609.874 272.236 576.69 247.125 525.814 231.552 C 537.555 179.698 532.336 138.441 509.345 125.234 C 504.045 122.136 497.848 120.668 491.081 120.668 L 491.081 138.849 C 494.83 138.849 497.848 139.583 500.375 140.97 C 511.463 147.329 516.274 171.543 512.525 202.689 C 511.626 210.354 510.159 218.426 508.366 226.66 C 492.385 222.746 474.937 219.73 456.592 217.773 C 445.586 202.689 434.171 188.992 422.675 177.006 C 449.254 152.303 474.204 138.768 491.162 138.768 L 491.162 120.586 C 468.741 120.586 439.389 136.567 409.711 164.287 C 380.032 136.73 350.682 120.912 328.26 120.912 L 328.26 139.094 C 345.137 139.094 370.168 152.546 396.747 177.088 C 385.332 189.073 373.918 202.689 363.074 217.773 C 344.648 219.73 327.199 222.746 311.22 226.741 C 309.345 218.589 307.958 210.679 306.98 203.097 C 303.147 171.951 307.877 147.736 318.884 141.295 C 321.329 139.827 324.509 139.175 328.26 139.175 L 328.26 120.994 C 321.411 120.994 315.215 122.462 309.834 125.559 C 286.924 138.768 281.786 179.941 293.608 231.635 C 242.895 247.289 209.874 272.318 209.874 298.735 C 209.874 325.234 243.058 350.345 293.934 365.918 C 282.193 417.773 287.412 459.029 310.403 472.237 C 315.704 475.336 321.9 476.804 328.749 476.804 C 351.17 476.804 380.523 460.823 410.2 433.102 C 439.878 460.659 469.229 476.477 491.651 476.477 C 498.501 476.477 504.696 475.009 510.078 471.91 C 532.989 458.703 538.125 417.529 526.303 365.836 C 576.853 350.264 609.874 325.152 609.874 298.735 Z M 503.719 244.353 C 500.701 254.87 496.952 265.715 492.712 276.558 C 489.369 270.037 485.862 263.512 482.03 256.991 C 478.28 250.468 474.286 244.108 470.29 237.911 C 481.867 239.624 493.037 241.744 503.719 244.353 Z M 466.376 331.185 C 460.017 342.193 453.493 352.628 446.726 362.331 C 434.579 363.391 422.267 363.961 409.874 363.961 C 397.562 363.961 385.251 363.391 373.184 362.413 C 366.417 352.709 359.813 342.355 353.454 331.43 C 347.257 320.749 341.63 309.905 336.495 298.979 C 341.549 288.055 347.257 277.129 353.372 266.448 C 359.731 255.441 366.255 245.004 373.022 235.303 C 385.169 234.242 397.481 233.672 409.874 233.672 C 422.186 233.672 434.497 234.242 446.564 235.221 C 453.331 244.923 459.935 255.278 466.294 266.203 C 472.492 276.885 478.118 287.729 483.253 298.653 C 478.118 309.579 472.492 320.504 466.376 331.185 Z M 492.712 320.586 C 497.115 331.511 500.864 342.437 503.963 353.036 C 493.283 355.645 482.03 357.846 470.371 359.559 C 474.366 353.281 478.361 346.84 482.113 340.236 C 485.862 333.713 489.369 327.108 492.712 320.586 Z M 410.037 407.581 C 402.454 399.754 394.872 391.03 387.371 381.491 C 394.709 381.817 402.21 382.063 409.792 382.063 C 417.457 382.063 425.039 381.899 432.458 381.491 C 425.121 391.03 417.538 399.754 410.037 407.581 Z M 349.377 359.559 C 337.799 357.846 326.629 355.727 315.948 353.117 C 318.965 342.6 322.715 331.756 326.955 320.912 C 330.298 327.435 333.804 333.958 337.635 340.48 C 341.468 347.003 345.382 353.363 349.377 359.559 Z M 409.629 189.889 C 417.212 197.717 424.794 206.44 432.295 215.979 C 424.958 215.654 417.457 215.408 409.874 215.408 C 402.21 215.408 394.627 215.571 387.208 215.979 C 394.547 206.44 402.128 197.717 409.629 189.889 Z M 349.296 237.911 C 345.301 244.19 341.305 250.631 337.555 257.236 C 333.804 263.758 330.298 270.279 326.955 276.803 C 322.553 265.877 318.801 254.952 315.704 244.353 C 326.385 241.826 337.635 239.624 349.296 237.911 Z M 275.508 339.991 C 246.645 327.679 227.974 311.536 227.974 298.735 C 227.974 285.934 246.645 269.71 275.508 257.479 C 282.521 254.464 290.184 251.772 298.093 249.245 C 302.74 265.226 308.855 281.858 316.437 298.899 C 308.936 315.857 302.903 332.409 298.337 348.306 C 290.265 345.779 282.602 343.007 275.508 339.991 Z M 319.373 456.502 C 308.285 450.142 303.474 425.927 307.224 394.781 C 308.122 387.116 309.589 379.045 311.382 370.811 C 327.363 374.724 344.811 377.741 363.156 379.698 C 374.162 394.781 385.577 408.478 397.073 420.465 C 370.494 445.168 345.544 458.703 328.586 458.703 C 324.918 458.621 321.819 457.887 319.373 456.502 Z M 512.768 394.372 C 516.601 425.518 511.871 449.735 500.864 456.174 C 498.419 457.642 495.239 458.295 491.489 458.295 C 474.611 458.295 449.58 444.842 423.001 420.301 C 434.416 408.315 445.83 394.7 456.674 379.616 C 475.1 377.66 492.549 374.642 508.528 370.647 C 510.403 378.882 511.871 386.791 512.768 394.372 Z M 544.158 339.991 C 537.146 343.007 529.483 345.698 521.573 348.226 C 516.927 332.245 510.812 315.613 503.228 298.572 C 510.73 281.613 516.763 265.062 521.329 249.163 C 529.401 251.692 537.065 254.464 544.24 257.479 C 573.103 269.791 591.774 285.934 591.774 298.735 C 591.692 311.536 573.022 327.761 544.158 339.991 Z" style="fill: rgb(255, 255, 255);"/>
    <circle cx="409.792" cy="298.735" r="37.26" style="fill: rgb(255, 255, 255);"/>
  </g>
</svg>